# xmcd
#
# Track frame offsets:
#	150
#	19268
#	39178
#	52816
#	70806
#	86923
#	105661
#	123461
#	141380
#	160786
#	167808
#	179562
#	184821
#
# Disc length: 2612 seconds
#
# Revision: 0
# Processed by: cddbd v1.5.1PL2 Copyright (c) Steve Scherf et al.
# Submitted via: EasyCDDAExtractor 8.1.2.3
#
DISCID=b10a320d
DTITLE=Les Zakariens - D'un extrème a l'autre
DYEAR=2004
DGENRE=Rap
TTITLE0=J'ai Pas Choisi
TTITLE1=Ba Alors
TTITLE2=C'est Pas Trop Tard
TTITLE3=Il Suffit D'une Fois
TTITLE4=La Suite Arrive (Feat. Flav &Dton)
TTITLE5=Sur Ton Chemin (Feat. Odt)
TTITLE6=Envie de pleurer
TTITLE7=La suite arrive
TTITLE8=Merci pour tout
TTITLE9=Inédit
TTITLE10=Inédit
TTITLE11=Mixtape- Nuit Blanche
TTITLE12=L'école
EXTD=
EXTT0=
EXTT1=
EXTT2=
EXTT3=
EXTT4=
EXTT5=
EXTT6=
EXTT7=
EXTT8=
EXTT9=
EXTT10=
EXTT11=
EXTT12=
PLAYORDER=
